<svg width="706" height="97" viewBox="0 0 706 97" fill="none" xmlns="http://www.w3.org/2000/svg">
<path d="M87.9091 36.8182H62.2727C62.0909 34.697 61.6061 32.7727 60.8182 31.0455C60.0606 29.3182 59 27.8333 57.6364 26.5909C56.303 25.3182 54.6818 24.3485 52.7727 23.6818C50.8636 22.9848 48.697 22.6364 46.2727 22.6364C42.0303 22.6364 38.4394 23.6667 35.5 25.7273C32.5909 27.7879 30.3788 30.7424 28.8636 34.5909C27.3788 38.4394 26.6364 43.0606 26.6364 48.4545C26.6364 54.1515 27.3939 58.9242 28.9091 62.7727C30.4545 66.5909 32.6818 69.4697 35.5909 71.4091C38.5 73.3182 42 74.2727 46.0909 74.2727C48.4242 74.2727 50.5152 73.9848 52.3636 73.4091C54.2121 72.803 55.8182 71.9394 57.1818 70.8182C58.5455 69.697 59.6515 68.3485 60.5 66.7727C61.3788 65.1667 61.9697 63.3636 62.2727 61.3636L87.9091 61.5455C87.6061 65.4848 86.5 69.5 84.5909 73.5909C82.6818 77.6515 79.9697 81.4091 76.4545 84.8636C72.9697 88.2879 68.6515 91.0455 63.5 93.1364C58.3485 95.2273 52.3636 96.2727 45.5455 96.2727C37 96.2727 29.3333 94.4394 22.5455 90.7727C15.7879 87.1061 10.4394 81.7121 6.5 74.5909C2.59091 67.4697 0.636364 58.7576 0.636364 48.4545C0.636364 38.0909 2.63636 29.3636 6.63636 22.2727C10.6364 15.1515 16.0303 9.77272 22.8182 6.13636C29.6061 2.46969 37.1818 0.63636 45.5455 0.63636C51.4242 0.63636 56.8333 1.43939 61.7727 3.04545C66.7121 4.65151 71.0455 7 74.7727 10.0909C78.5 13.1515 81.5 16.9242 83.7727 21.4091C86.0455 25.8939 87.4242 31.0303 87.9091 36.8182ZM120.682 95H93.4091L124.136 1.90909H158.682L189.409 95H162.136L141.773 27.5455H141.045L120.682 95ZM115.591 58.2727H166.864V77.1818H115.591V58.2727ZM198.375 95V1.90909H238.557C245.466 1.90909 251.511 3.16666 256.693 5.68182C261.875 8.19697 265.905 11.8182 268.784 16.5455C271.663 21.2727 273.102 26.9394 273.102 33.5455C273.102 40.2121 271.617 45.8333 268.648 50.4091C265.708 54.9848 261.572 58.4394 256.239 60.7727C250.936 63.1061 244.739 64.2727 237.648 64.2727H213.648V44.6364H232.557C235.527 44.6364 238.057 44.2727 240.148 43.5455C242.269 42.7879 243.89 41.5909 245.011 39.9545C246.163 38.3182 246.739 36.1818 246.739 33.5455C246.739 30.8788 246.163 28.7121 245.011 27.0455C243.89 25.3485 242.269 24.1061 240.148 23.3182C238.057 22.5 235.527 22.0909 232.557 22.0909H223.648V95H198.375ZM252.92 52.2727L276.193 95H248.739L226.011 52.2727H252.92ZM370.784 36.8182H345.148C344.966 34.697 344.481 32.7727 343.693 31.0455C342.936 29.3182 341.875 27.8333 340.511 26.5909C339.178 25.3182 337.557 24.3485 335.648 23.6818C333.739 22.9848 331.572 22.6364 329.148 22.6364C324.905 22.6364 321.314 23.6667 318.375 25.7273C315.466 27.7879 313.254 30.7424 311.739 34.5909C310.254 38.4394 309.511 43.0606 309.511 48.4545C309.511 54.1515 310.269 58.9242 311.784 62.7727C313.33 66.5909 315.557 69.4697 318.466 71.4091C321.375 73.3182 324.875 74.2727 328.966 74.2727C331.299 74.2727 333.39 73.9848 335.239 73.4091C337.087 72.803 338.693 71.9394 340.057 70.8182C341.42 69.697 342.527 68.3485 343.375 66.7727C344.254 65.1667 344.845 63.3636 345.148 61.3636L370.784 61.5455C370.481 65.4848 369.375 69.5 367.466 73.5909C365.557 77.6515 362.845 81.4091 359.33 84.8636C355.845 88.2879 351.527 91.0455 346.375 93.1364C341.223 95.2273 335.239 96.2727 328.42 96.2727C319.875 96.2727 312.208 94.4394 305.42 90.7727C298.663 87.1061 293.314 81.7121 289.375 74.5909C285.466 67.4697 283.511 58.7576 283.511 48.4545C283.511 38.0909 285.511 29.3636 289.511 22.2727C293.511 15.1515 298.905 9.77272 305.693 6.13636C312.481 2.46969 320.057 0.63636 328.42 0.63636C334.299 0.63636 339.708 1.43939 344.648 3.04545C349.587 4.65151 353.92 7 357.648 10.0909C361.375 13.1515 364.375 16.9242 366.648 21.4091C368.92 25.8939 370.299 31.0303 370.784 36.8182ZM407.523 1.90909V95H382.25V1.90909H407.523ZM500.045 1.90909V95H478.955L445.318 46.0909H444.773V95H419.5V1.90909H440.955L474.045 50.6364H474.773V1.90909H500.045ZM537.273 1.90909V95H512V1.90909H537.273ZM549.614 95V81L593.614 22.2727H549.795V1.90909H625.795V15.9091L581.795 74.6364H625.614V95H549.614ZM638.125 95V1.90909H705.216V22.2727H663.398V38.2727H701.761V58.6364H663.398V74.6364H705.034V95H638.125Z" fill="black"/>
</svg>
